<!-- SVG Sprite -->
<svg width="0" height="0" class="hidden">
  <symbol xmlns="http://www.w3.org/2000/svg" viewBox="-2 0 511 512" id="svg-1">
    <linearGradient id="a" gradientUnits="userSpaceOnUse" x1="253.5" x2="253.5" y1="0" y2="512">
      <stop offset="0" stop-color="#2af598"></stop>
      <stop offset="1" stop-color="#009efd"></stop>
    </linearGradient>
    <path d="M85.5 60c0-11.027 8.973-20 20-20h174.89v71.11c0 33.085 26.915 60 60 60h71V290h40V142.855L309.259 0H105.5c-33.086 0-60 26.914-60 60v230h40zm234.89 51.11V67.901l62.887 63.207h-42.886c-11.032 0-20-8.968-20-20zM506.5 401v20c0 50.055-40.707 90.8-90.816 91h-.368c-50.109-.2-90.816-40.945-90.816-91 0-50.18 40.8-91 90.945-91 12.868 0 25.32 2.645 37.008 7.86l-16.297 36.527c-6.527-2.91-13.496-4.387-20.71-4.387-28.09 0-50.946 22.879-50.946 51 0 28.059 22.863 50.898 51 51 21.023-.074 39.102-12.848 46.898-31H419.5v-40zm-361 55.5c0 30.602-24.898 55.5-55.5 55.5H.5v-40H90c8.547 0 15.5-6.953 15.5-15.5S98.547 441 90 441H56C25.398 441 .5 416.102.5 385.5S25.398 330 56 330h68.5v40H56c-8.547 0-15.5 6.953-15.5 15.5S47.453 401 56 401h34c30.602 0 55.5 24.898 55.5 55.5zM271.121 330h42.316l-62.792 182h-30.446L156.5 330h42.379l36.383 103.95zm0 0" fill="url(#a)"></path>
  </symbol>
  <symbol xmlns="http://www.w3.org/2000/svg" viewBox="0 0 512 512" id="svg-2">
    <path d="M128 0c-17.6 0-32 14.4-32 32v448c0 17.6 14.4 32 32 32h320c17.6 0 32-14.4 32-32V128L352 0H128z" fill="#e2e5e7"></path>
    <path d="M384 128h96L352 0v96c0 17.6 14.4 32 32 32z" fill="#b0b7bd"></path>
    <path fill="#cad1d8" d="M480 224l-96-96h96z"></path>
    <path d="M416 416c0 8.8-7.2 16-16 16H48c-8.8 0-16-7.2-16-16V256c0-8.8 7.2-16 16-16h352c8.8 0 16 7.2 16 16v160z" fill="#f7b84e"></path>
    <path d="M96.816 314.656c2.944-24.816 40.416-29.28 58.08-15.712 8.704 7.024-.512 18.16-8.192 12.528-9.472-6.016-30.96-8.832-33.648 4.464-3.456 20.992 52.192 8.976 51.312 42.992-.896 32.496-47.984 33.264-65.648 18.672-4.224-3.44-4.096-9.056-1.792-12.528 3.328-3.312 7.04-4.464 11.392-.896 10.48 7.168 37.488 12.544 39.392-5.648-1.648-18.912-54.864-7.52-50.896-43.872zm112.304 63.6l-33.776-70.752c-4.992-10.112 10.112-18.416 15.728-7.808l11.392 25.712 14.704 33.776 14.448-33.776 11.392-25.712c5.12-9.712 19.952-3.584 15.616 7.04L226 378.256c-2.944 8.064-12.016 9.968-16.88 0zm136.64-4.096c-9.088 7.536-20.224 10.752-31.472 10.752-26.88 0-45.936-15.36-45.936-45.808 0-25.84 20.096-45.92 47.072-45.92 10.112 0 21.232 3.456 29.168 11.264 7.792 7.664-3.456 19.056-11.12 12.288-4.736-4.624-11.392-8.064-18.048-8.064-15.472 0-30.432 12.4-30.432 30.432 0 18.944 12.528 30.448 29.296 30.448 7.792 0 14.448-2.304 19.184-5.76V348.08h-19.184c-11.392 0-10.24-15.632 0-15.632h25.584c4.736 0 9.072 3.6 9.072 7.568v27.248c.016 2.288-1.008 4.448-3.184 6.896z" fill="#fff"></path>
    <path d="M400 432H96v16h304c8.8 0 16-7.2 16-16v-16c0 8.8-7.2 16-16 16z" fill="#cad1d8"></path>
  </symbol>
  <symbol xmlns="http://www.w3.org/2000/svg" viewBox="0 0 56 56" id="svg-3">
    <path d="M36.985 0H7.963C7.155 0 6.5.655 6.5 1.926V55c0 .345.655 1 1.463 1h40.074c.808 0 1.463-.655 1.463-1V12.978c0-.696-.093-.92-.257-1.085L37.607.257A.884.884 0 0036.985 0z" fill="#e9e9e0"></path>
    <path fill="#d9d7ca" d="M37.5.151V12h11.849z"></path>
    <path d="M48.037 56H7.963A1.463 1.463 0 016.5 54.537V39h43v15.537c0 .808-.655 1.463-1.463 1.463z" fill="#e57e25"></path>
    <path d="M21.459 50.238c0 .364-.075.718-.226 1.06s-.362.643-.636.902-.61.467-1.012.622-.856.232-1.367.232c-.219 0-.444-.012-.677-.034s-.467-.062-.704-.116-.463-.13-.677-.226-.398-.212-.554-.349l.287-1.176c.128.073.289.144.485.212s.398.132.608.191.419.107.629.144.405.055.588.055c.556 0 .982-.13 1.278-.39.296-.26.444-.645.444-1.155 0-.31-.104-.574-.314-.793s-.472-.417-.786-.595-.654-.355-1.019-.533-.706-.388-1.025-.629-.583-.526-.793-.854-.314-.738-.314-1.23c0-.446.082-.843.246-1.189s.385-.641.663-.882.602-.426.971-.554.759-.191 1.169-.191c.419 0 .843.039 1.271.116s.774.203 1.039.376c-.055.118-.118.248-.191.39l-.205.396c-.063.123-.118.226-.164.308s-.073.128-.082.137c-.055-.027-.116-.063-.185-.109s-.166-.091-.294-.137-.296-.077-.506-.096-.479-.014-.807.014c-.183.019-.355.07-.52.157s-.31.193-.438.321-.228.271-.301.431-.109.313-.109.458c0 .364.104.658.314.882s.47.419.779.588.647.333 1.012.492.704.354 1.019.581.576.513.786.854.318.781.318 1.319zm4.402 2.817L22.73 42.924h1.873l2.338 8.695 2.475-8.695h1.859l-3.281 10.131h-2.133zm14.807-5.25v3.896c-.21.265-.444.48-.704.649s-.533.308-.82.417-.583.187-.889.233-.608.068-.909.068c-.602 0-1.155-.109-1.661-.328s-.948-.542-1.326-.971-.675-.966-.889-1.613-.321-1.395-.321-2.242.107-1.593.321-2.235.511-1.178.889-1.606.822-.754 1.333-.978 1.062-.335 1.654-.335c.547 0 1.058.091 1.531.273s.897.456 1.271.82l-1.135 1.012c-.219-.265-.47-.456-.752-.574s-.574-.178-.875-.178c-.337 0-.658.063-.964.191s-.579.344-.82.649-.431.699-.567 1.183-.21 1.075-.219 1.777c.009.684.08 1.276.212 1.777s.314.911.547 1.23.497.556.793.711.608.232.937.232c.101 0 .234-.007.403-.021s.337-.036.506-.068.33-.075.485-.13.269-.132.342-.232v-2.488h-1.709v-1.121h3.336z" fill="#fff"></path>
    <path d="M45.5 22v-6h-6v2h-6v-4h-10v4h-6v-2h-6v6h6v-2h3.548c-4.566 2.636-7.548 7.588-7.548 13a1 1 0 102 0c0-5.246 3.229-9.999 8-11.995V24h10v-2.995c4.771 1.997 8 6.75 8 11.995a1 1 0 102 0c0-5.412-2.982-10.364-7.548-13H39.5v2h6zm-30-2h-2v-2h2v2zm16 2h-6v-6h6v6zm10-4h2v2h-2v-2z" fill="#c8bdb8"></path>
  </symbol>
</svg>
